HIERARCHY
ROOT Hips
{
	OFFSET 0.000000 0.000000 0.000000
	CHANNELS 6 Xposition Yposition Zposition Xrotation Yrotation Zrotation
	JOINT LeftUpLeg_virtual
	{
		OFFSET 0.000000 0.000000 0.000000
		CHANNELS 3 Xrotation Yrotation Zrotation
		JOINT LeftUpLeg
		{
			OFFSET 15.427100 -6.655098 0.678600
			CHANNELS 3 Xrotation Yrotation Zrotation
			JOINT LeftLeg
			{
				OFFSET 4.081073 -39.591068 13.024000
				CHANNELS 3 Xrotation Yrotation Zrotation
				JOINT LeftFoot
				{
					OFFSET -4.081074 -37.707932 -15.979700
					CHANNELS 3 Xrotation Yrotation Zrotation
					JOINT LeftToeBase
					{
						OFFSET 5.346399 -15.068900 20.645000
						CHANNELS 3 Xrotation Yrotation Zrotation
						JOINT LeftToe_End
						{
							OFFSET 2.754700 0.931300 11.300900
							CHANNELS 3 Xrotation Yrotation Zrotation
							End Site
							{
								OFFSET 0 0 0
							}
						}
					}
				}
			}
		}
	}
	JOINT RightUpLeg_virtual
	{
		OFFSET 0.000000 0.000000 0.000000
		CHANNELS 3 Xrotation Yrotation Zrotation
		JOINT RightUpLeg
		{
			OFFSET -15.569500 -6.655098 0.678600
			CHANNELS 3 Xrotation Yrotation Zrotation
			JOINT RightLeg
			{
				OFFSET -4.081825 -39.591045 13.023800
				CHANNELS 3 Xrotation Yrotation Zrotation
				JOINT RightFoot
				{
					OFFSET 4.081824 -37.707954 -15.979600
					CHANNELS 3 Xrotation Yrotation Zrotation
					JOINT RightToeBase
					{
						OFFSET -5.346400 -15.068900 20.645000
						CHANNELS 3 Xrotation Yrotation Zrotation
						JOINT RightToe_End
						{
							OFFSET -2.754700 0.931300 11.300900
							CHANNELS 3 Xrotation Yrotation Zrotation
							End Site
							{
								OFFSET 0 0 0
							}
						}
					}
				}
			}
		}
	}
	JOINT Spine_virtual
	{
		OFFSET 0.000000 0.000000 0.000000
		CHANNELS 3 Xrotation Yrotation Zrotation
		JOINT Spine
		{
			OFFSET -0.279200 12.230698 -2.892100
			CHANNELS 3 Xrotation Yrotation Zrotation
			JOINT Spine1
			{
				OFFSET -0.232667 10.192268 -1.242267
				CHANNELS 3 Xrotation Yrotation Zrotation
				JOINT Spine1_split
				{
					OFFSET -0.232667 10.192268 -1.242267
					CHANNELS 3 Xrotation Yrotation Zrotation
					JOINT Spine2
					{
						OFFSET -0.232667 10.192268 -1.242267
						CHANNELS 3 Xrotation Yrotation Zrotation
						JOINT Neck_virtual
						{
							OFFSET 0.000000 0.000000 0.000000
							CHANNELS 3 Xrotation Yrotation Zrotation
							JOINT Neck
							{
								OFFSET -0.418800 17.814194 8.416900
								CHANNELS 3 Xrotation Yrotation Zrotation
								JOINT Head
								{
									OFFSET 0.000000 7.031097 3.806800
									CHANNELS 3 Xrotation Yrotation Zrotation
									JOINT HeadTop_End
									{
										OFFSET 0.000000 24.646606 12.978600
										CHANNELS 3 Xrotation Yrotation Zrotation
										End Site
										{
											OFFSET 0 0 0
										}
									}
								}
							}
						}
						JOINT LeftShoulder_virtual
						{
							OFFSET 0.000000 0.000000 0.000000
							CHANNELS 3 Xrotation Yrotation Zrotation
							JOINT LeftShoulder
							{
								OFFSET 8.476499 7.247704 -3.868750
								CHANNELS 3 Xrotation Yrotation Zrotation
								JOINT LeftShoulder_split
								{
									OFFSET 8.476499 7.247704 -3.868750
									CHANNELS 3 Xrotation Yrotation Zrotation
									JOINT LeftArm
									{
										OFFSET 9.308998 -2.777710 0.208600
										CHANNELS 3 Xrotation Yrotation Zrotation
										JOINT LeftForeArm
										{
											OFFSET 29.972298 0.000000 0.000000
											CHANNELS 3 Xrotation Yrotation Zrotation
											JOINT LeftHand
											{
												OFFSET 26.026505 0.000000 0.000000
												CHANNELS 3 Xrotation Yrotation Zrotation
												End Site
												{
													OFFSET 0 0 0
												}
											}
										}
									}
								}
							}
						}
						JOINT RightShoulder_virtual
						{
							OFFSET 0.000000 0.000000 0.000000
							CHANNELS 3 Xrotation Yrotation Zrotation
							JOINT RightShoulder
							{
								OFFSET -7.570500 7.247704 -3.868750
								CHANNELS 3 Xrotation Yrotation Zrotation
								JOINT RightShoulder_split
								{
									OFFSET -7.570500 7.247704 -3.868750
									CHANNELS 3 Xrotation Yrotation Zrotation
									JOINT RightArm
									{
										OFFSET -9.308998 -2.777710 0.208500
										CHANNELS 3 Xrotation Yrotation Zrotation
										JOINT RightForeArm
										{
											OFFSET -29.972300 0.000000 0.000000
											CHANNELS 3 Xrotation Yrotation Zrotation
											JOINT RightHand
											{
												OFFSET -26.026505 0.000000 0.000000
												CHANNELS 3 Xrotation Yrotation Zrotation
												End Site
												{
													OFFSET 0 0 0
												}
											}
										}
									}
								}
							}
						}
					}
				}
			}
		}
	}
}
MOTION
Frames: 9
Frame Time: 0.03333333
1.375260 91.360413 -1.054100 0.000000 0.000000 0.000000 3.698582 -30.752585 2.365343 -11.876253 15.342067 13.304522 16.650715 12.315529 -4.694488 -6.875166 -4.304409 -6.863926 2.579396 0.170703 -0.424874 0.000000 0.000000 0.000000 4.317460 -30.341230 2.302271 -2.641564 -1.410149 -12.806638 9.759590 10.406159 6.383707 -9.994493 -2.133938 6.067776 -1.693161 0.212947 0.856285 0.000000 0.000000 0.000000 3.854745 -29.470648 1.240669 7.315209 0.114590 -1.145638 1.307948 -0.778062 2.364589 0.483646 0.182269 0.664621 0.000000 0.000000 0.000000 1.070937 -0.384597 2.489426 -4.560910 17.682398 -7.129369 -5.936313 15.470114 0.336325 0.000000 0.000000 0.000000 1.305379 -0.607200 2.629070 0.925730 -10.313644 0.264514 1.453180 -0.153123 0.225611 -59.851773 1.383652 -39.452433 9.336127 -59.941904 11.744016 0.000000 0.000000 0.000000 0.830197 -0.453954 2.670994 4.822797 6.030263 7.257929 -0.791103 -0.181927 -1.408503 0.072104 0.531040 63.373644 12.333273 23.517245 -3.934132 0.000000 0.000000 0.000000 
1.363012 91.381493 -1.000397 0.000000 0.000000 0.000000 3.822016 -30.732819 2.404201 -11.926155 15.300090 13.320268 16.608848 12.301137 -4.650683 -6.883090 -4.285720 -6.892037 2.544928 0.173638 -0.429081 0.000000 0.000000 0.000000 4.438222 -30.337897 2.330350 -2.682324 -1.351569 -12.799619 9.833519 10.458363 6.368273 -9.945486 -2.098183 6.109676 -1.711729 0.198346 0.857698 0.000000 0.000000 0.000000 3.994832 -29.414910 1.279590 7.276621 0.124027 -1.169478 1.284819 -0.793867 2.371440 0.562953 0.136403 0.734738 0.000000 0.000000 0.000000 1.062863 -0.389881 2.510960 -4.499808 17.860916 -7.206061 -5.900880 15.497610 0.370825 0.000000 0.000000 0.000000 1.276883 -0.610263 2.642922 0.910372 -10.207768 0.140309 1.549916 -0.226081 0.299283 -59.793464 1.453759 -39.373322 9.493721 -59.978254 11.819527 0.000000 0.000000 0.000000 0.819407 -0.458006 2.686410 4.769470 6.076080 7.396569 -0.974224 -0.235171 -1.385260 0.154936 0.586062 63.335777 12.324415 23.282773 -3.923436 0.000000 0.000000 0.000000 
1.334797 91.388634 -0.975170 0.000000 0.000000 0.000000 4.015470 -30.657683 2.460592 -12.055759 15.174923 13.332303 16.584220 12.298709 -4.606053 -6.902742 -4.242086 -6.951569 2.516114 0.173384 -0.412304 0.000000 0.000000 0.000000 4.620761 -30.313042 2.381689 -2.771691 -1.298937 -12.781350 9.927338 10.510164 6.363449 -9.968702 -2.069018 6.133032 -1.682061 0.184754 0.861895 0.000000 0.000000 0.000000 4.236570 -29.362546 1.354308 7.244193 0.145358 -1.198596 1.246633 -0.786696 2.375643 0.600122 0.060300 0.761515 0.000000 0.000000 0.000000 1.053909 -0.368725 2.523179 -4.388951 18.211012 -7.327840 -5.949424 15.695324 0.488499 0.000000 0.000000 0.000000 1.250762 -0.588291 2.647149 0.889834 -10.027065 0.019165 1.635887 -0.220569 0.394912 -59.766197 1.506898 -39.309330 9.584709 -60.130759 11.825822 0.000000 0.000000 0.000000 0.802198 -0.439781 2.691654 4.725355 6.136769 7.569415 -1.080360 -0.299829 -1.439715 0.250568 0.627676 63.294885 12.287438 23.047821 -3.925440 0.000000 0.000000 0.000000 
1.285441 91.375893 -0.962685 0.000000 0.000000 0.000000 4.257779 -30.500917 2.524905 -12.257955 14.986632 13.342268 16.580351 12.309015 -4.572078 -6.936199 -4.180950 -7.030539 2.507687 0.170089 -0.380773 0.000000 0.000000 0.000000 4.844542 -30.247585 2.447271 -2.905167 -1.265503 -12.756379 10.008825 10.556750 6.366884 -10.054339 -2.043117 6.153226 -1.614183 0.176290 0.863676 0.000000 0.000000 0.000000 4.548945 -29.303253 1.455087 7.212108 0.174495 -1.224624 1.193344 -0.756831 2.375390 0.537115 -0.026621 0.740804 0.000000 0.000000 0.000000 1.043134 -0.326426 2.528032 -4.216362 18.736821 -7.528269 -6.097864 16.075410 0.657207 0.000000 0.000000 0.000000 1.230381 -0.546414 2.642210 0.871566 -9.795718 -0.074916 1.694905 -0.094308 0.519011 -59.794085 1.540590 -39.296725 9.586865 -60.304095 11.746626 0.000000 0.000000 0.000000 0.780167 -0.402970 2.687252 4.689122 6.221313 7.741685 -1.091343 -0.335911 -1.565741 0.342753 0.666296 63.283157 12.229534 22.805971 -3.936112 0.000000 0.000000 0.000000 
1.217438 91.346611 -0.955173 0.000000 0.000000 0.000000 4.529575 -30.250990 2.592158 -12.516243 14.740745 13.358134 16.601014 12.332019 -4.560651 -6.978848 -4.111262 -7.118497 2.514896 0.166036 -0.334103 0.000000 0.000000 0.000000 5.100951 -30.104202 2.522681 -3.058526 -1.263272 -12.725938 10.063059 10.594776 6.376199 -10.190308 -2.017345 6.178155 -1.541030 0.174059 0.862820 0.000000 0.000000 0.000000 4.906270 -29.199947 1.569557 7.169048 0.207054 -1.243011 1.135198 -0.709404 2.369125 0.446335 -0.146198 0.736157 0.000000 0.000000 0.000000 1.031388 -0.269755 2.525049 -3.964650 19.443935 -7.851459 -6.355654 16.650884 0.844719 0.000000 0.000000 0.000000 1.217957 -0.490287 2.631959 0.862533 -9.539508 -0.130236 1.726756 0.106704 0.642852 -59.905390 1.593017 -39.362182 9.497855 -60.421684 11.580110 0.000000 0.000000 0.000000 0.760651 -0.353775 2.674804 4.659430 6.331651 7.875974 -1.040100 -0.321621 -1.721093 0.435748 0.685839 63.316298 12.157821 22.581842 -3.950653 0.000000 0.000000 0.000000 
1.121346 91.306168 -0.952141 0.000000 0.000000 0.000000 4.813703 -29.898979 2.661460 -12.792829 14.451741 13.381598 16.631243 12.358199 -4.580969 -7.017518 -4.050603 -7.209582 2.523446 0.161002 -0.272474 0.000000 0.000000 0.000000 5.371966 -29.841551 2.600156 -3.211239 -1.308385 -12.684473 10.090699 10.615021 6.386480 -10.358907 -2.000522 6.196159 -1.477971 0.177717 0.861043 0.000000 0.000000 0.000000 5.280812 -29.009101 1.686196 7.103602 0.242080 -1.252595 1.081055 -0.651964 2.355251 0.378812 -0.309620 0.764014 0.000000 0.000000 0.000000 1.019172 -0.205074 2.514476 -3.613119 20.334455 -8.343372 -6.726871 17.445072 1.013428 0.000000 0.000000 0.000000 1.218714 -0.426760 2.619940 0.866629 -9.287406 -0.133720 1.747483 0.266157 0.713793 -60.148661 1.667252 -39.540020 9.341627 -60.463894 11.349586 0.000000 0.000000 0.000000 0.750246 -0.298417 2.655296 4.635542 6.467270 7.941837 -0.937830 -0.281942 -1.864619 0.517308 0.642317 63.402010 12.082197 22.397637 -3.967044 0.000000 0.000000 0.000000 
0.999984 91.259720 -0.948563 0.000000 0.000000 0.000000 5.094859 -29.440270 2.735363 -13.067381 14.113310 13.417672 16.655327 12.377209 -4.635078 -7.041545 -4.014862 -7.306768 2.530463 0.154747 -0.203035 0.000000 0.000000 0.000000 5.641114 -29.450789 2.672269 -3.362398 -1.422840 -12.622009 10.125291 10.598916 6.388084 -10.546036 -2.010822 6.184856 -1.421448 0.184834 0.862510 0.000000 0.000000 0.000000 5.658736 -28.706564 1.798062 7.013385 0.279773 -1.258139 1.042857 -0.592124 2.329988 0.363996 -0.450897 0.812859 0.000000 0.000000 0.000000 1.015691 -0.138744 2.497236 -3.142645 21.406909 -9.028562 -7.205977 18.454239 1.143758 0.000000 0.000000 0.000000 1.231620 -0.360895 2.605432 0.883550 -9.063752 -0.098959 1.774853 0.335699 0.760200 -60.542701 1.754555 -39.837396 9.180850 -60.469085 11.109999 0.000000 0.000000 0.000000 0.745972 -0.241559 2.628400 4.619146 6.622694 7.934919 -0.798521 -0.253804 -1.962786 0.596151 0.489635 63.522603 12.011853 22.290742 -3.979974 0.000000 0.000000 0.000000 
0.861291 91.210190 -0.941483 0.000000 0.000000 0.000000 5.370419 -28.877043 2.810395 -13.328281 13.726587 13.473836 16.664816 12.372427 -4.723264 -7.053872 -4.020724 -7.411881 2.553994 0.145768 -0.132142 0.000000 0.000000 0.000000 5.895991 -28.938852 2.736020 -3.509985 -1.627562 -12.537797 10.205914 10.540447 6.381801 -10.745067 -2.060863 6.130277 -1.380476 0.190025 0.868820 0.000000 0.000000 0.000000 6.017380 -28.280502 1.901102 6.899566 0.319726 -1.265058 1.027504 -0.534479 2.293666 0.381985 -0.543198 0.879959 0.000000 0.000000 0.000000 1.029186 -0.074844 2.474995 -2.532089 22.639864 -9.914754 -7.776880 19.656198 1.227640 0.000000 0.000000 0.000000 1.253940 -0.293888 2.590595 0.908642 -8.875635 -0.046396 1.794758 0.385873 0.746270 -61.044836 1.859422 -40.203231 9.049358 -60.474003 10.893831 0.000000 0.000000 0.000000 0.742165 -0.190376 2.595575 4.607606 6.797009 7.861999 -0.638724 -0.257867 -2.024101 0.717316 0.217135 63.636340 11.960796 22.261325 -3.986156 0.000000 0.000000 0.000000 
0.711259 91.156975 -0.921867 0.000000 0.000000 0.000000 5.635530 -28.192432 2.881544 -13.570566 13.304222 13.546964 16.666850 12.335471 -4.845192 -7.070844 -4.083292 -7.519564 2.603302 0.132062 -0.069224 0.000000 0.000000 0.000000 6.127875 -28.316574 2.789643 -3.657480 -1.934015 -12.444349 10.366041 10.441399 6.371840 -10.962040 -2.147781 6.030433 -1.344458 0.190622 0.877901 0.000000 0.000000 0.000000 6.345877 -27.722595 1.992722 6.772511 0.365266 -1.276934 1.033786 -0.479901 2.250420 0.414323 -0.611420 0.891969 0.000000 0.000000 0.000000 1.052305 -0.014581 2.449387 -1.781758 23.980553 -10.986796 -8.408901 20.985917 1.273664 0.000000 0.000000 0.000000 1.279852 -0.225113 2.578208 0.937575 -8.720666 0.006157 1.840774 0.465569 0.696071 -61.551472 1.979467 -40.543166 8.970630 -60.486031 10.721650 0.000000 0.000000 0.000000 0.738315 -0.144111 2.559473 4.594551 6.993600 7.730962 -0.462682 -0.279118 -2.055757 0.924963 -0.135458 63.711240 11.937490 22.281600 -3.992322 0.000000 0.000000 0.000000 
